<svg xmlns="http://www.w3.org/2000/svg" width="1024" height="1024" viewBox="0 0 1024 1024">
<g>
<path d="M 0.00 305.70 L 0.00 0.00 L 1024.00 0.00 L 1024.00 1024.00 L 1023.76 511.75 C1023.65,277.69 1023.40,123.71 1023.15,123.71 C1023.09,123.71 1023.04,130.10 1022.99,143.50 C1022.58,255.84 1022.18,288.31 1021.20,291.20 C1018.73,298.41 1014.88,306.28 1011.08,311.89 C1008.87,315.14 969.36,355.22 918.51,405.78 C824.79,498.99 823.07,500.56 806.40,508.12 C793.94,513.77 782.25,516.17 767.00,516.23 C745.77,516.30 729.54,511.50 712.16,500.01 C702.24,493.45 698.92,490.13 609.85,397.50 C577.06,363.40 548.26,334.10 545.86,332.38 C533.84,323.78 521.25,319.66 507.00,319.66 C495.89,319.66 487.86,321.57 477.00,326.78 C467.77,331.21 464.90,334.04 377.49,424.86 C342.89,460.80 311.43,492.68 307.58,495.69 C299.33,502.15 283.74,509.92 272.50,513.18 C265.56,515.19 262.32,515.49 248.00,515.48 C234.21,515.46 230.10,515.10 223.00,513.24 C212.52,510.50 196.73,502.76 187.76,495.97 C179.79,489.92 6.92,316.00 2.82,309.89 Z" fill="rgb(39,116,185)"/>
<path d="M 741.45 650.54 C767.28,655.23 797.43,647.01 818.38,629.57 C822.30,626.32 831.35,618.19 838.50,611.52 C845.65,604.86 865.23,586.60 882.01,570.95 C898.79,555.30 925.05,530.80 940.37,516.50 C955.69,502.20 970.06,489.25 972.31,487.72 C992.38,474.05 1019.75,486.82 1022.95,511.36 C1022.95,511.41 1022.96,511.43 1022.96,511.43 C1023.32,511.43 1023.58,435.33 1023.64,330.23 C1023.69,382.81 1023.73,443.92 1023.76,511.75 L 1024.00 1024.00 L 0.00 1024.00 L 0.00 492.35 L 2.25 490.28 C3.49,489.15 6.97,486.95 10.00,485.40 C14.80,482.94 16.64,482.58 24.50,482.54 C36.01,482.49 40.12,484.53 53.12,496.69 C98.76,539.42 185.45,619.37 189.87,622.82 C213.01,640.85 244.25,647.50 272.50,640.42 C286.32,636.95 301.29,629.33 313.28,619.64 C315.42,617.91 334.62,596.22 355.94,571.43 C449.87,462.20 456.68,453.93 465.42,449.28 C466.69,448.61 468.00,448.01 469.62,447.19 C490.54,436.63 516.75,438.40 536.33,451.69 C541.59,455.26 547.47,461.31 561.80,477.91 C572.05,489.79 584.52,504.23 589.51,510.00 C594.50,515.78 605.57,528.60 614.09,538.50 C622.62,548.40 635.62,563.47 642.97,572.00 C650.33,580.53 662.75,594.96 670.59,604.07 C686.31,622.37 693.51,629.40 702.50,635.24 C714.64,643.12 726.70,647.86 741.45,650.54 Z" fill="rgb(45,125,60)"/>
<path d="M 741.45 650.54 C726.70,647.86 714.64,643.12 702.50,635.24 C693.51,629.40 686.31,622.37 670.59,604.07 C662.75,594.96 650.33,580.53 642.97,572.00 C635.62,563.47 622.62,548.40 614.09,538.50 C605.57,528.60 594.50,515.78 589.51,510.00 C584.52,504.23 572.05,489.79 561.80,477.91 C547.47,461.31 541.59,455.26 536.33,451.69 C516.75,438.40 490.54,436.63 469.62,447.19 C456.82,453.65 463.51,446.35 355.94,571.43 C334.62,596.22 315.42,617.91 313.28,619.64 C301.29,629.33 286.32,636.95 272.50,640.42 C244.25,647.50 213.01,640.85 189.87,622.82 C185.45,619.37 98.76,539.42 53.12,496.69 C40.12,484.53 36.01,482.49 24.50,482.54 C16.64,482.58 14.80,482.94 10.00,485.40 C6.97,486.95 3.49,489.15 2.25,490.28 L -0.00 492.35 L -0.00 399.02 L -0.00 305.70 L 2.82 309.89 C6.92,316.00 179.79,489.92 187.76,495.97 C196.73,502.76 212.52,510.50 223.00,513.24 C230.10,515.10 234.21,515.46 248.00,515.48 C262.32,515.49 265.56,515.19 272.50,513.18 C283.74,509.92 299.33,502.15 307.58,495.69 C311.43,492.68 342.89,460.80 377.49,424.86 C464.90,334.04 467.77,331.21 477.00,326.78 C487.86,321.57 495.89,319.66 507.00,319.66 C521.25,319.66 533.84,323.78 545.86,332.38 C548.26,334.10 577.06,363.40 609.85,397.50 C698.92,490.13 702.24,493.45 712.16,500.01 C729.54,511.50 745.77,516.30 767.00,516.23 C782.25,516.17 793.94,513.77 806.40,508.12 C823.07,500.56 824.79,498.99 918.51,405.78 C969.36,355.22 1008.87,315.14 1011.08,311.89 C1014.88,306.28 1018.73,298.41 1021.20,291.20 C1022.18,288.31 1022.58,255.84 1022.99,143.50 C1023.44,23.76 1023.54,43.13 1023.64,258.50 C1023.70,400.95 1023.39,514.74 1022.95,511.36 C1019.75,486.82 992.38,474.05 972.31,487.72 C970.06,489.25 955.69,502.20 940.37,516.50 C925.05,530.80 898.79,555.30 882.01,570.95 C865.23,586.60 845.65,604.86 838.50,611.52 C831.35,618.19 822.30,626.32 818.38,629.57 C797.43,647.01 767.28,655.23 741.45,650.54 Z" fill="rgb(246,247,246)"/>
</g>
</svg>